<svg width="21" height="21" viewBox="0 0 21 22" fill="none" xmlns="http://www.w3.org/2000/svg">
<path d="M1.29883 1.99023L19.5168 20.2082" stroke="#E24C4C" stroke-opacity="0.6" stroke-width="2" stroke-linecap="round" stroke-linejoin="round"/>
<path d="M12.8914 8.89606V4.47407C12.892 3.858 12.6637 3.26367 12.2508 2.80647C11.8378 2.34926 11.2697 2.0618 10.6568 1.99989C10.0438 1.93797 9.42973 2.10602 8.93371 2.47141C8.43769 2.8368 8.09513 3.37347 7.97254 3.97722M7.92285 8.61451V11.0988C7.92328 11.5898 8.06922 12.0697 8.34222 12.4778C8.61522 12.886 9.00305 13.204 9.45672 13.3919C9.9104 13.5797 10.4096 13.6289 10.8912 13.5332C11.3728 13.4376 11.8152 13.2013 12.1627 12.8543L7.92285 8.61451Z" stroke="#E24C4C" stroke-opacity="0.6" stroke-width="2" stroke-linecap="round" stroke-linejoin="round"/>
<path d="M16.2037 9.44238V11.0986C16.2034 11.4401 16.173 11.7809 16.1127 12.1171M14.5476 15.1976C13.7392 16.0227 12.7027 16.5875 11.5711 16.8195C10.4395 17.0515 9.26439 16.9401 8.19654 16.4996C7.12869 16.0591 6.2168 15.3096 5.57785 14.3473C4.93891 13.3849 4.60206 12.2537 4.61051 11.0986V9.44238L14.5476 15.1976Z" stroke="#E24C4C" stroke-opacity="0.6" stroke-width="2" stroke-linecap="round" stroke-linejoin="round"/>
<path d="M10.4072 16.8955V20.2079" stroke="#E24C4C" stroke-opacity="0.6" stroke-width="2" stroke-linecap="round" stroke-linejoin="round"/>
<path d="M7.09473 20.208H13.7194" stroke="#E24C4C" stroke-opacity="0.6" stroke-width="2" stroke-linecap="round" stroke-linejoin="round"/>
</svg>
