<svg width="21" height="21" viewBox="0 0 17 21" fill="none" xmlns="http://www.w3.org/2000/svg">
<path d="M8.6625 0.729004C9.26461 0.729004 9.86082 0.847598 10.4171 1.07802C10.9734 1.30843 11.4788 1.64616 11.9046 2.07192C12.3303 2.49767 12.6681 3.00312 12.8985 3.55939C13.1289 4.11567 13.2475 4.71188 13.2475 5.31399V8.98198C13.2475 10.198 12.7644 11.3642 11.9046 12.2241C11.0447 13.0839 9.87852 13.567 8.6625 13.567C7.44649 13.567 6.28028 13.0839 5.42043 12.2241C4.56057 11.3642 4.07752 10.198 4.07752 8.98198V5.31399C4.07752 4.09798 4.56057 2.93177 5.42043 2.07192C6.28028 1.21206 7.44649 0.729004 8.6625 0.729004ZM0.459961 9.89898H2.30771C2.52989 11.4256 3.29428 12.8212 4.46103 13.8304C5.62779 14.8396 7.1189 15.3951 8.66158 15.3951C10.2043 15.3951 11.6954 14.8396 12.8621 13.8304C14.0289 12.8212 14.7933 11.4256 15.0155 9.89898H16.8641C16.6556 11.7593 15.8212 13.4936 14.4976 14.8173C13.1739 16.1411 11.4398 16.9758 9.5795 17.1845V20.9029H7.7455V17.1845C5.88504 16.976 4.15068 16.1414 2.82689 14.8176C1.50311 13.4938 0.668498 11.7594 0.459961 9.89898Z" fill="white" fill-opacity="0.6"/>
</svg>
