<?xml version="1.0" encoding="iso-8859-1"?>
<!-- Generator: Adobe Illustrator 19.0.0, SVG Export Plug-In . SVG Version: 6.00 Build 0)  -->
<svg version="1.1" id="Layer_1" xmlns="http://www.w3.org/2000/svg" xmlns:xlink="http://www.w3.org/1999/xlink" x="0px" y="0px"
	 viewBox="0 0 512 512" style="enable-background:new 0 0 512 512;" xml:space="preserve">
<g>
	<g>
		<path d="M423.386,248.299l-256-245.327c-4.208-4.021-10.833-3.958-14.927,0.167l-64,63.998c-2.042,2.042-3.167,4.812-3.125,7.687
			c0.042,2.896,1.25,5.625,3.344,7.604l183.792,173.579L88.678,429.586c-2.094,1.979-3.302,4.708-3.344,7.604
			c-0.042,2.875,1.083,5.646,3.125,7.687l64,63.998c2.083,2.083,4.813,3.125,7.542,3.125c2.656,0,5.313-0.979,7.385-2.958
			l256-245.327c2.094-2.021,3.281-4.792,3.281-7.708C426.667,253.09,425.48,250.319,423.386,248.299z M160.157,486.417
			l-48.854-48.875L295.323,263.75c2.135-2,3.344-4.813,3.344-7.75s-1.208-5.75-3.344-7.75L111.303,74.458l48.854-48.875L400.584,256
			L160.157,486.417z"/>
	</g>
</g>
<g>
</g>
<g>
</g>
<g>
</g>
<g>
</g>
<g>
</g>
<g>
</g>
<g>
</g>
<g>
</g>
<g>
</g>
<g>
</g>
<g>
</g>
<g>
</g>
<g>
</g>
<g>
</g>
<g>
</g>
</svg>
