<svg width="21" height="21" viewBox="0 0 25 15" fill="none" xmlns="http://www.w3.org/2000/svg">
<path d="M24.174 2.71744C24.0542 2.65159 23.9183 2.61669 23.7798 2.61624C23.6413 2.6158 23.5052 2.64981 23.3849 2.71488L19.0334 5.07055V4.48873C19.0322 3.49584 18.6154 2.54394 17.8743 1.84186C17.1332 1.13978 16.1284 0.744849 15.0804 0.743713H2.43053C2.01131 0.744168 1.6094 0.902139 1.31297 1.18297C1.01653 1.4638 0.849784 1.84456 0.849304 2.24172V11.2298C0.850503 12.2227 1.26737 13.1746 2.00846 13.8766C2.74954 14.5787 3.75433 14.9736 4.80238 14.9748H17.4522C17.8714 14.9743 18.2734 14.8164 18.5698 14.5355C18.8662 14.2547 19.033 13.8739 19.0334 13.4768V10.6479L23.3849 13.0036C23.5052 13.0687 23.6413 13.1027 23.7798 13.1023C23.9183 13.1018 24.0542 13.0669 24.174 13.0011C24.2937 12.9352 24.3932 12.8407 24.4623 12.727C24.5314 12.6133 24.5677 12.4845 24.5678 12.3533V3.36523C24.5678 3.23403 24.5314 3.10514 24.4623 2.99145C24.3932 2.87777 24.2938 2.78327 24.174 2.71744ZM22.9865 11.0626L19.0334 8.92258V6.79592L22.9865 4.65587V11.0626Z" fill="#A5A6A6"/>
</svg>
