<svg width="21" height="21" viewBox="0 0 22 22" fill="none" xmlns="http://www.w3.org/2000/svg">
<path d="M9.57087 4.65234H12.4627C12.922 4.65234 13.3624 4.83478 13.6872 5.15953C14.0119 5.48428 14.1944 5.92473 14.1944 6.38399V9.27583L15.0602 10.1417L20.2551 6.38399V15.0422M14.1944 14.1764V15.0422C14.1944 15.5015 14.0119 15.9419 13.6872 16.2667C13.3624 16.5914 12.922 16.7739 12.4627 16.7739H2.93868C2.47941 16.7739 2.03896 16.5914 1.71422 16.2667C1.38947 15.9419 1.20703 15.5015 1.20703 15.0422V6.38399C1.20703 5.92473 1.38947 5.48428 1.71422 5.15953C2.03896 4.83478 2.47941 4.65234 2.93868 4.65234H4.67032L14.1944 14.1764Z" stroke="#E24C4C" stroke-opacity="0.6" stroke-width="2" stroke-linecap="round" stroke-linejoin="round"/>
<path d="M1.20703 1.18945L20.2551 20.2375" stroke="#E24C4C" stroke-opacity="0.6" stroke-width="2" stroke-linecap="round" stroke-linejoin="round"/>
</svg>
